<svg width="19" height="20" viewBox="0 0 19 20" fill="none" xmlns="http://www.w3.org/2000/svg">
<path fill-rule="evenodd" clip-rule="evenodd" d="M8.36424 8.12538C8.71376 8.92428 9.84703 8.92429 10.1966 8.12538L11.4825 5.18601C11.5943 4.93049 11.5943 4.63989 11.4825 4.38437L10.1966 1.44501C9.84703 0.646099 8.71376 0.646098 8.36424 1.44501L7.07826 4.38437C6.96647 4.63989 6.96647 4.93049 7.07826 5.18601L8.36424 8.12538ZM13.1103 9.1938C12.7405 8.88799 12.2056 8.88799 11.8357 9.1938L9.84972 10.8361C9.47991 11.1419 8.94501 11.1419 8.57519 10.8361L6.58917 9.1938C6.21936 8.88799 5.68446 8.88799 5.31465 9.1938L0.362736 13.2886C-0.120912 13.6886 -0.120912 14.43 0.362736 14.8299L5.31465 18.9248C5.68446 19.2306 6.21936 19.2306 6.58917 18.9248L8.57519 17.2825C8.945 16.9767 9.47991 16.9767 9.84972 17.2825L11.8357 18.9248C12.2056 19.2306 12.7405 19.2306 13.1103 18.9248L18.0622 14.8299C18.5458 14.43 18.5458 13.6886 18.0622 13.2886L13.1103 9.1938Z" fill="white"/>
</svg>
