<svg width="28" height="27" viewBox="0 0 28 27" fill="none" xmlns="http://www.w3.org/2000/svg">
<path d="M26.46 18.57C24.5467 18.57 22.6956 18.27 20.9689 17.73C20.4244 17.55 19.8178 17.685 19.3978 18.09L16.9556 21.045C12.5533 19.02 8.43111 15.195 6.23778 10.8L9.27111 8.31C9.69111 7.89 9.81556 7.305 9.64444 6.78C9.06889 5.115 8.77333 3.33 8.77333 1.485C8.77333 0.675 8.07333 0 7.23333 0H1.85111C1.01111 0 0 0.36 0 1.485C0 15.42 12.0244 27 26.46 27C27.5644 27 28 26.055 28 25.23V20.055C28 19.245 27.3 18.57 26.46 18.57Z" fill="white"/>
</svg>
