<svg width="213" height="213" viewBox="0 0 213 213" fill="none" xmlns="http://www.w3.org/2000/svg">
<circle cx="106.5" cy="106.5" r="106.5" fill="white"/>
<mask id="mask0_76_452" style="mask-type:alpha" maskUnits="userSpaceOnUse" x="0" y="0" width="213" height="213">
<circle cx="106.5" cy="106.5" r="106.5" fill="white"/>
</mask>
<g mask="url(#mask0_76_452)">
<path d="M90.1797 208.684C89.8928 210.481 88.2021 211.709 86.4154 211.367C61.8896 206.67 39.7457 193.514 23.8829 174.138C7.3234 153.911 -1.24065 128.313 -0.186241 102.193C0.868163 76.0738 11.4678 51.2487 29.6037 32.4226C47.7397 13.5965 72.1519 2.07756 98.2138 0.0488923C124.276 -1.97978 150.176 5.62274 171.007 21.4157C191.838 37.2086 206.151 60.0945 211.235 85.7361C216.318 111.378 211.819 137.993 198.589 160.539C185.915 182.136 166.074 198.561 142.57 206.996C140.858 207.611 138.997 206.658 138.436 204.928V204.928C137.875 203.198 138.825 201.345 140.536 200.727C162.506 192.791 181.05 177.411 192.907 157.205C205.321 136.05 209.543 111.077 204.773 87.0172C200.003 62.9576 186.573 41.4837 167.027 26.6652C147.481 11.8467 123.179 4.71326 98.725 6.61676C74.2711 8.52027 51.3652 19.3285 34.3481 36.993C17.3311 54.6576 7.38549 77.9511 6.39614 102.459C5.40679 126.967 13.4424 150.986 28.9802 169.965C43.8213 188.093 64.5218 200.419 87.455 204.859C89.241 205.204 90.4666 206.888 90.1797 208.684V208.684Z" fill="#0F4C5C"/>
<path d="M11.1222 145.246C9.44545 145.936 7.52185 145.138 6.88395 143.44C1.12253 128.111 -1.02869 111.644 0.617473 95.3216C2.37354 77.9092 8.39679 61.1985 18.1537 46.6699C27.9106 32.1412 41.1 20.2431 56.5535 12.0294C72.0071 3.81563 89.2478 -0.46017 106.749 -0.419279C124.249 -0.378388 141.47 3.97793 156.885 12.2638C172.3 20.5497 185.434 32.5093 195.122 47.0834C204.811 61.6574 210.756 78.3961 212.431 95.8165C214.001 112.147 211.773 128.604 205.94 143.905C205.294 145.6 203.367 146.389 201.693 145.691V145.691C200.02 144.993 199.234 143.073 199.877 141.377C205.296 127.073 207.362 111.7 205.895 96.4449C204.324 80.0992 198.746 64.3933 189.655 50.7184C180.564 37.0436 168.24 25.8218 153.776 18.0472C139.312 10.2725 123.154 6.185 106.733 6.14663C90.3123 6.10826 74.1353 10.1202 59.6352 17.8272C45.135 25.5342 32.7594 36.6982 23.6045 50.3305C14.4496 63.9627 8.79798 79.6423 7.15026 95.9805C5.61246 111.229 7.60648 126.611 12.959 140.941C13.5935 142.639 12.7989 144.556 11.1222 145.246V145.246Z" fill="#9A031E"/>
<path d="M3.90352 95.4583C2.09989 95.273 0.782827 93.6591 1.02366 91.862C4.36593 66.9227 16.4471 43.9329 35.1739 27.0208C54.714 9.37409 80.1022 -0.402573 106.431 -0.419544C132.761 -0.436515 158.161 9.30741 177.724 26.929C196.473 43.8169 208.584 66.791 211.958 91.7261C212.201 93.5228 210.886 95.1384 209.083 95.326V95.326C207.279 95.5137 205.671 94.2023 205.424 92.406C202.22 69.0869 190.871 47.6082 173.33 31.8075C154.974 15.2732 131.14 6.13046 106.436 6.14638C81.7309 6.1623 57.9091 15.3358 39.5746 31.8937C22.0535 47.717 10.7324 69.2103 7.5585 92.5335C7.31403 94.3301 5.70716 95.6436 3.90352 95.4583V95.4583Z" fill="#FB8B24"/>
<path fill-rule="evenodd" clip-rule="evenodd" d="M103.845 45.1041V47.3261C101.965 47.7511 100.607 48.9681 100.607 50.4031C100.607 51.8381 101.965 53.0551 103.845 53.48V55.4931C99.668 55.9836 96.4852 58.5265 96.4852 61.5898C96.4852 64.653 99.668 67.196 103.845 67.6865V69.6996C101.965 70.1246 100.607 71.3416 100.607 72.7766C100.607 74.2116 101.965 75.4286 103.845 75.8536V77.8626C99.668 78.3297 96.4852 80.7515 96.4852 83.669C96.4852 84.2844 96.6268 84.8777 96.8895 85.4353H92.2642L84.7884 89.9625L78.7381 84.2578L77.6446 97.7997L82.0554 93.5607V98.3884L79.5805 101.332L77.7244 113.697L74.109 115.56L74.1118 115.558L65.5324 107.22L64.1025 125.472L70.2998 119.333V137.837L62.9612 140.231L53.925 131.36L52.3269 151.967L59.4723 144.817V165.804L54.6759 168.725L44.6728 158.444L42.9065 182.289L51.7383 173.037V214.378H106.494H106.495H161.251V173.037L170.083 182.289L168.316 158.444L158.313 168.725L153.517 165.804V144.817L160.662 151.967L159.064 131.36L150.028 140.231L142.689 137.837V119.333L148.887 125.472L147.457 107.22L138.877 115.558L138.88 115.56L135.265 113.697L133.409 101.332L130.934 98.3884V93.5607L135.345 97.7997L134.251 84.2578L128.201 89.9625L120.725 85.4353H113.744C114.007 84.8777 114.149 84.2844 114.149 83.669C114.149 80.8903 111.261 78.5612 107.378 77.9423V75.6894C108.946 75.1639 110.027 74.057 110.027 72.7766C110.027 71.4961 108.946 70.3893 107.378 69.8638V67.6027C111.261 66.9529 114.149 64.5074 114.149 61.5898C114.149 58.6722 111.261 56.2266 107.378 55.5768V53.3159C108.946 52.7904 110.027 51.6835 110.027 50.4031C110.027 49.1226 108.946 48.0158 107.378 47.4903V45.1041H112.971V42.7489H110.616L105.611 32.1509L100.607 42.7489H98.2516V45.1041H103.845ZM91.1515 164.729C90.5177 165.363 89.7431 165.679 88.8276 165.679H88.141V166.208H104.197L104.144 165.679H103.51C102.595 165.679 101.803 165.363 101.134 164.729C100.465 164.06 100.13 163.267 100.13 162.352V133.039C100.13 132.124 100.465 131.349 101.134 130.715C101.803 130.082 102.595 129.765 103.51 129.765H104.144L104.197 129.237H88.141V129.765H88.8276C89.4262 129.765 89.972 129.906 90.4649 130.187C91.5916 130.821 92.1726 131.772 92.2078 133.039V162.352C92.1726 163.267 91.8205 164.06 91.1515 164.729ZM134.249 177.193C136.362 177.193 138.703 176.524 141.274 175.186L141.221 174.658C137.77 174.482 134.636 173.443 131.82 171.542C129.003 169.641 125.992 166.577 122.788 162.352L108.422 144.5L118.721 132.247C120.2 130.557 122.119 129.712 124.478 129.712H124.689V129.237H112.595V129.712H113.123C113.827 129.712 114.32 129.976 114.602 130.504C114.707 130.715 114.76 130.962 114.76 131.244C114.76 131.525 114.619 131.842 114.338 132.194L101.82 148.778L115.711 165.891C120.077 171.313 124.355 174.781 128.545 176.295C130.235 176.894 132.136 177.193 134.249 177.193Z" fill="url(#paint0_linear_76_452)"/>
</g>
<defs>
<linearGradient id="paint0_linear_76_452" x1="106.495" y1="32.1509" x2="106.495" y2="214.378" gradientUnits="userSpaceOnUse">
<stop offset="0.41958" stop-color="#FB8B24"/>
<stop offset="1" stop-color="#9A031E"/>
</linearGradient>
</defs>
</svg>
