<svg width="30" height="28" viewBox="0 0 30 28" fill="none" xmlns="http://www.w3.org/2000/svg">
<path d="M16.1864 18.298L12.7227 14.784L12.7636 14.742C15.1364 12.026 16.8273 8.904 17.8227 5.6H21.8182V2.8H12.2727V0H9.54545V2.8H0V5.586H15.2318C14.3182 8.288 12.8727 10.85 10.9091 13.09C9.64091 11.648 8.59091 10.066 7.75909 8.4H5.03182C6.02727 10.682 7.39091 12.838 9.09545 14.784L2.15455 21.812L4.09091 23.8L10.9091 16.8L15.15 21.154L16.1864 18.298ZM23.8636 11.2H21.1364L15 28H17.7273L19.2545 23.8H25.7318L27.2727 28H30L23.8636 11.2ZM20.2909 21L22.5 14.938L24.7091 21H20.2909V21Z" fill="white"/>
</svg>
