<svg width="359" height="81" viewBox="0 0 359 81" fill="none" xmlns="http://www.w3.org/2000/svg">
<path d="M2.50459 43.5446C3.29391 43.5446 3.9618 43.2714 4.50826 42.7249C5.08507 42.1481 5.38866 41.4651 5.41902 40.6757V15.4022C5.38866 14.3092 4.88774 13.4896 3.91627 12.9431C3.49124 12.7002 3.02069 12.5788 2.50459 12.5788H1.9126V12.1234H15.7561L15.7106 12.5788H15.1641C14.3748 12.5788 13.6918 12.852 13.1149 13.3985C12.5381 13.9449 12.2497 14.6128 12.2497 15.4022V40.6757C12.2497 41.4651 12.5381 42.1481 13.1149 42.7249C13.6918 43.2714 14.3748 43.5446 15.1641 43.5446H15.7106L15.7561 44H1.9126V43.5446H2.50459ZM47.7238 51.7415C45.5076 52.8951 43.4888 53.4719 41.6672 53.4719C39.8457 53.4719 38.2064 53.2139 36.7491 52.6978C33.1365 51.3923 29.4479 48.402 25.6834 43.7268L13.7069 28.9725L24.4994 14.6735C24.7423 14.37 24.8637 14.0967 24.8637 13.8539C24.8637 13.611 24.8182 13.3985 24.7271 13.2163C24.4843 12.7609 24.0592 12.5333 23.4521 12.5333H22.9967V12.1234H33.4249V12.5333H33.2427C31.2087 12.5333 29.5541 13.2619 28.2791 14.7191L19.3992 25.2839L31.7855 40.6757C34.5481 44.3188 37.1438 46.96 39.5725 48.5993C42.0012 50.2387 44.7031 51.1343 47.6783 51.2861L47.7238 51.7415Z" fill="#FB8B24"/>
<path d="M61.3734 43.6585H61.6467V44H53.9621V43.6585H54.2695C54.7477 43.6585 55.1006 43.5105 55.3283 43.2145C55.5787 42.8957 55.704 42.5997 55.704 42.3265C55.704 42.0533 55.6584 41.78 55.5674 41.5068L53.3815 35.7007H44.1601L41.8718 41.5409C41.7807 41.8142 41.7352 42.0874 41.7352 42.3606C41.7352 42.6111 41.849 42.8957 42.0767 43.2145C42.3272 43.5105 42.6915 43.6585 43.1696 43.6585H43.477V44H36.6122V43.6585H36.9196C37.4888 43.6585 38.0466 43.4763 38.5931 43.112C39.1395 42.7477 39.5835 42.2126 39.9251 41.5068L47.6437 23.1322C48.4862 21.2879 48.9074 20.1153 48.9074 19.6144H49.2148L58.3679 41.5068C58.6867 42.2126 59.1193 42.7477 59.6658 43.112C60.2122 43.4763 60.7815 43.6585 61.3734 43.6585ZM44.5699 34.6761H52.9717L48.8733 23.7128L44.5699 34.6761ZM65.4348 43.6585C66.0268 43.6585 66.5277 43.4535 66.9375 43.0437C67.3701 42.6111 67.5978 42.0988 67.6206 41.5068V22.5858C67.5978 21.9938 67.3701 21.4929 66.9375 21.083C66.5277 20.6504 66.0268 20.4341 65.4348 20.4341H64.9908V20.0926H72.4704V20.4341H72.0264C71.2067 20.4341 70.5806 20.787 70.148 21.4929C69.943 21.8344 69.8406 22.1987 69.8406 22.5858V42.9412H74.7245C76.4094 42.9412 77.6959 42.5656 78.5839 41.8142C79.4719 41.0628 80.2119 39.9471 80.8038 38.4671H81.1454L79.1645 44H64.9908V43.6585H65.4348ZM101.326 26.6842C101.326 27.686 101.121 28.6195 100.711 29.4848C99.9597 31.1014 98.6391 32.2284 96.7493 32.866C96.089 33.0937 95.5197 33.2075 95.0416 33.2075C93.6299 33.2075 92.4118 32.9457 91.3872 32.422V32.0804C93.0493 32.4447 94.5862 32.2626 95.9979 31.534C97.2502 30.8964 98.104 29.8491 98.5594 28.3919C98.696 27.9365 98.7643 27.5039 98.7643 27.094C98.7643 26.6842 98.7643 26.4337 98.7643 26.3426C98.7188 24.7488 98.2975 23.4851 97.5006 22.5516C96.7037 21.5953 95.588 21.1172 94.1536 21.1172H90.2259V41.5068C90.2487 42.0988 90.465 42.6111 90.8749 43.0437C91.3075 43.4535 91.8198 43.6585 92.4118 43.6585H92.8558V44H85.3761V43.6585H85.8201C86.4121 43.6585 86.9131 43.4535 87.3229 43.0437C87.7555 42.6111 87.9832 42.0988 88.006 41.5068V22.415C87.9377 21.8458 87.6986 21.379 87.2887 21.0147C86.8789 20.6276 86.3894 20.4341 85.8201 20.4341H85.4103L85.3761 20.0926H94.2902C96.476 20.0926 98.1951 20.6846 99.4474 21.8685C100.7 23.0298 101.326 24.635 101.326 26.6842ZM126.799 43.6585H127.072V44H119.387V43.6585H119.695C120.173 43.6585 120.526 43.5105 120.754 43.2145C121.004 42.8957 121.129 42.5997 121.129 42.3265C121.129 42.0533 121.084 41.78 120.993 41.5068L118.807 35.7007H109.585L107.297 41.5409C107.206 41.8142 107.16 42.0874 107.16 42.3606C107.16 42.6111 107.274 42.8957 107.502 43.2145C107.752 43.5105 108.117 43.6585 108.595 43.6585H108.902V44H102.037V43.6585H102.345C102.914 43.6585 103.472 43.4763 104.018 43.112C104.565 42.7477 105.009 42.2126 105.35 41.5068L113.069 23.1322C113.911 21.2879 114.333 20.1153 114.333 19.6144H114.64L123.793 41.5068C124.112 42.2126 124.545 42.7477 125.091 43.112C125.637 43.4763 126.207 43.6585 126.799 43.6585ZM109.995 34.6761H118.397L114.299 23.7128L109.995 34.6761ZM146.082 23.1322C146.082 22.5858 145.888 22.119 145.501 21.7319C145.114 21.3221 144.659 21.1058 144.135 21.083H137.646V41.5409C137.669 42.1329 137.885 42.6339 138.295 43.0437C138.727 43.4535 139.24 43.6585 139.832 43.6585H140.276V44H132.796V43.6585H133.24C133.832 43.6585 134.333 43.4535 134.743 43.0437C135.175 42.6339 135.403 42.1443 135.426 41.5751V21.083H128.937C128.39 21.1058 127.924 21.3221 127.536 21.7319C127.172 22.119 126.99 22.5858 126.99 23.1322V23.7128L126.648 23.747V19.4436C126.99 19.5803 127.582 19.7169 128.424 19.8535C129.267 19.9901 130.041 20.0584 130.747 20.0584H142.291C143.406 20.0584 144.329 19.9787 145.057 19.8193C145.809 19.6372 146.264 19.512 146.423 19.4436V23.747L146.082 23.7128V23.1322ZM167.467 43.6585C168.059 43.6585 168.56 43.4535 168.97 43.0437C169.403 42.6111 169.631 42.1102 169.653 41.5409V32.6952H155.685V41.5409C155.685 42.1329 155.901 42.6339 156.333 43.0437C156.766 43.4535 157.278 43.6585 157.87 43.6585H158.314V44H150.835V43.6585H151.279C151.871 43.6585 152.372 43.4535 152.781 43.0437C153.214 42.6339 153.442 42.1329 153.465 41.5409V22.5516C153.442 21.9596 153.214 21.4587 152.781 21.0489C152.372 20.639 151.871 20.4341 151.279 20.4341H150.835V20.0926H158.314V20.4341H157.87C157.278 20.4341 156.766 20.639 156.333 21.0489C155.924 21.4587 155.707 21.9596 155.685 22.5516V31.6706H169.653V22.5516C169.631 21.7319 169.266 21.1172 168.56 20.7073C168.219 20.5252 167.855 20.4341 167.467 20.4341H167.023V20.0926H174.503V20.4341H174.059C173.467 20.4341 172.955 20.6504 172.522 21.083C172.112 21.4929 171.896 21.9938 171.873 22.5858V41.5409C171.896 42.1329 172.112 42.6339 172.522 43.0437C172.955 43.4535 173.467 43.6585 174.059 43.6585H174.503V44H167.023V43.6585H167.467ZM201.262 20.4341H200.783C200.1 20.4341 199.451 20.6276 198.837 21.0147C198.245 21.379 197.744 21.8458 197.334 22.415L190.606 33.3441V41.5068C190.606 42.0988 190.811 42.6111 191.22 43.0437C191.653 43.4535 192.177 43.6585 192.792 43.6585H193.201V44H185.756V43.6585H186.2C186.792 43.6585 187.293 43.4535 187.703 43.0437C188.135 42.6339 188.363 42.1329 188.386 41.5409V33.31L181.862 22.415C181.521 21.8685 181.031 21.4018 180.394 21.0147C179.779 20.6276 179.13 20.4341 178.447 20.4341H177.969V20.0926H186.371V20.4341H185.927C185.426 20.4341 185.039 20.6618 184.765 21.1172C184.629 21.3676 184.561 21.6181 184.561 21.8685C184.561 22.0962 184.617 22.3239 184.731 22.5516L189.854 32.1146L195.319 22.5175C195.433 22.2898 195.49 22.0621 195.49 21.8344C195.49 21.6067 195.41 21.3676 195.251 21.1172C194.977 20.6618 194.59 20.4341 194.089 20.4341H193.679V20.0926H201.262V20.4341ZM214.518 40.8237C214.518 39.1844 214.871 37.7841 215.576 36.6228H215.884C215.861 36.805 215.85 36.9872 215.85 37.1693C215.85 38.7404 216.407 40.1179 217.523 41.3019C218.662 42.4631 220.21 43.0437 222.168 43.0437C223.694 43.0437 224.878 42.6794 225.72 41.9508C226.585 41.2222 227.018 40.3 227.018 39.1844C227.018 37.841 226.107 36.6684 224.286 35.6666L218.343 31.7389C217.159 31.0558 216.305 30.2361 215.781 29.2798C215.28 28.3008 215.03 27.3103 215.03 26.3085C215.03 24.1682 215.702 22.5175 217.045 21.3562C218.411 20.195 220.153 19.6144 222.27 19.6144C223.523 19.6144 225.071 19.7283 226.915 19.9559H229.067L228.623 24.9765H228.282C228.282 23.7925 227.838 22.8476 226.95 22.1418C226.084 21.4132 224.923 21.0489 223.466 21.0489C221.69 21.0489 220.403 21.5953 219.607 22.6882C219.197 23.2119 218.992 23.8039 218.992 24.4642C218.992 25.5571 219.789 26.5703 221.383 27.5039L227.906 31.7389C229.955 32.9229 230.98 34.6647 230.98 36.9644C230.98 39.4007 230.149 41.2677 228.486 42.5656C226.847 43.8406 224.661 44.4781 221.929 44.4781C220.381 44.4781 218.946 44.296 217.626 43.9317C216.328 43.5446 215.371 43.0323 214.757 42.3948C214.597 41.9622 214.518 41.4385 214.518 40.8237ZM260.117 20.4341H259.809C259.286 20.4341 258.762 20.5935 258.238 20.9122C257.715 21.231 257.282 21.7092 256.941 22.3467L248.846 40.209C247.799 42.4631 247.241 43.9545 247.173 44.6831H246.865L236.517 22.3808C236.175 21.7433 235.743 21.2652 235.219 20.9464C234.695 20.6049 234.16 20.4341 233.614 20.4341H233.34V20.0926H244.201V20.4341H243.928C243.427 20.4341 243.051 20.5935 242.801 20.9122C242.573 21.2082 242.459 21.4929 242.459 21.7661C242.459 22.0393 242.505 22.3125 242.596 22.5858L248.402 36.6912L254.413 22.5858C254.527 22.2898 254.584 22.0165 254.584 21.7661C254.584 21.4929 254.459 21.2082 254.208 20.9122C253.981 20.5935 253.616 20.4341 253.115 20.4341H252.808V20.0926H260.117V20.4341ZM262.493 40.8237C262.493 39.1844 262.846 37.7841 263.551 36.6228H263.859C263.836 36.805 263.825 36.9872 263.825 37.1693C263.825 38.7404 264.382 40.1179 265.498 41.3019C266.637 42.4631 268.185 43.0437 270.143 43.0437C271.669 43.0437 272.853 42.6794 273.695 41.9508C274.56 41.2222 274.993 40.3 274.993 39.1844C274.993 37.841 274.082 36.6684 272.261 35.6666L266.318 31.7389C265.134 31.0558 264.28 30.2361 263.756 29.2798C263.255 28.3008 263.005 27.3103 263.005 26.3085C263.005 24.1682 263.677 22.5175 265.02 21.3562C266.386 20.195 268.128 19.6144 270.245 19.6144C271.498 19.6144 273.046 19.7283 274.89 19.9559H277.042L276.598 24.9765H276.256C276.256 23.7925 275.812 22.8476 274.924 22.1418C274.059 21.4132 272.898 21.0489 271.441 21.0489C269.665 21.0489 268.378 21.5953 267.581 22.6882C267.172 23.2119 266.967 23.8039 266.967 24.4642C266.967 25.5571 267.764 26.5703 269.357 27.5039L275.881 31.7389C277.93 32.9229 278.955 34.6647 278.955 36.9644C278.955 39.4007 278.124 41.2677 276.461 42.5656C274.822 43.8406 272.636 44.4781 269.904 44.4781C268.356 44.4781 266.921 44.296 265.601 43.9317C264.303 43.5446 263.346 43.0323 262.732 42.3948C262.572 41.9622 262.493 41.4385 262.493 40.8237ZM308.092 20.4341H307.784C307.261 20.4341 306.737 20.5935 306.213 20.9122C305.69 21.231 305.257 21.7092 304.916 22.3467L296.821 40.209C295.774 42.4631 295.216 43.9545 295.148 44.6831H294.84L284.492 22.3808C284.15 21.7433 283.718 21.2652 283.194 20.9464C282.67 20.6049 282.135 20.4341 281.589 20.4341H281.315V20.0926H292.176V20.4341H291.903C291.402 20.4341 291.026 20.5935 290.776 20.9122C290.548 21.2082 290.434 21.4929 290.434 21.7661C290.434 22.0393 290.48 22.3125 290.571 22.5858L296.377 36.6912L302.388 22.5858C302.502 22.2898 302.559 22.0165 302.559 21.7661C302.559 21.4929 302.434 21.2082 302.183 20.9122C301.956 20.5935 301.591 20.4341 301.09 20.4341H300.783V20.0926H308.092V20.4341ZM310.468 40.8237C310.468 39.1844 310.821 37.7841 311.526 36.6228H311.834C311.811 36.805 311.8 36.9872 311.8 37.1693C311.8 38.7404 312.357 40.1179 313.473 41.3019C314.612 42.4631 316.16 43.0437 318.118 43.0437C319.643 43.0437 320.827 42.6794 321.67 41.9508C322.535 41.2222 322.968 40.3 322.968 39.1844C322.968 37.841 322.057 36.6684 320.235 35.6666L314.293 31.7389C313.109 31.0558 312.255 30.2361 311.731 29.2798C311.23 28.3008 310.98 27.3103 310.98 26.3085C310.98 24.1682 311.652 22.5175 312.995 21.3562C314.361 20.195 316.103 19.6144 318.22 19.6144C319.473 19.6144 321.021 19.7283 322.865 19.9559H325.017L324.573 24.9765H324.231C324.231 23.7925 323.787 22.8476 322.899 22.1418C322.034 21.4132 320.873 21.0489 319.416 21.0489C317.64 21.0489 316.353 21.5953 315.556 22.6882C315.147 23.2119 314.942 23.8039 314.942 24.4642C314.942 25.5571 315.739 26.5703 317.332 27.5039L323.856 31.7389C325.905 32.9229 326.93 34.6647 326.93 36.9644C326.93 39.4007 326.099 41.2677 324.436 42.5656C322.797 43.8406 320.611 44.4781 317.879 44.4781C316.331 44.4781 314.896 44.296 313.576 43.9317C312.278 43.5446 311.321 43.0323 310.707 42.3948C310.547 41.9622 310.468 41.4385 310.468 40.8237ZM343.845 20.0926C347.875 20.0926 351.062 21.1627 353.408 23.303C355.753 25.4433 356.925 28.3577 356.925 32.0463C356.925 35.7349 355.753 38.6493 353.408 40.7896C351.062 42.9299 347.875 44 343.845 44H331.447V43.6585H331.891C332.483 43.6585 332.984 43.4535 333.394 43.0437C333.826 42.6111 334.054 42.0988 334.077 41.5068V22.3808C334.008 21.8344 333.769 21.379 333.359 21.0147C332.95 20.6276 332.46 20.4341 331.891 20.4341H331.447V20.0926H343.845ZM343.401 42.5656C345.04 42.5656 346.452 42.1443 347.636 41.3019C348.842 40.4367 349.765 39.2185 350.402 37.6475C351.04 36.0536 351.358 34.1866 351.358 32.0463C351.358 28.8131 350.641 26.2516 349.207 24.3617C347.795 22.4719 345.86 21.527 343.401 21.527H339.2V42.5656H343.401Z" fill="#9A031E"/>
<path d="M143.237 74.2207C141.828 74.2207 140.79 73.867 140.122 73.1597C139.454 72.4466 139.12 71.4082 139.12 70.0444V63.1519H140.827V70.0953C140.827 70.9668 141.013 71.6317 141.387 72.0901C141.766 72.5428 142.383 72.7692 143.237 72.7692C144.092 72.7692 144.706 72.5428 145.079 72.0901C145.458 71.6317 145.648 70.9668 145.648 70.0953V63.1519H147.354V70.0444C147.354 71.4082 147.02 72.4466 146.353 73.1597C145.69 73.867 144.652 74.2207 143.237 74.2207ZM149.683 63.1519H152.23L156.228 72.1495H156.33L156.262 67.464V63.1519H157.917V74H155.43L151.372 64.9005H151.271L151.338 69.7813V74H149.683V63.1519ZM164.121 74H161.49V72.5655H164.062C164.956 72.5655 165.626 72.3221 166.073 71.8355C166.526 71.3488 166.753 70.6528 166.753 69.7473V67.3876C166.753 66.4765 166.526 65.7804 166.073 65.2994C165.626 64.8128 164.956 64.5694 164.062 64.5694H161.481V63.1519H164.121C165.558 63.1519 166.642 63.5169 167.372 64.2469C168.102 64.9712 168.467 66.0153 168.467 67.3791V69.7558C168.467 71.1196 168.102 72.1693 167.372 72.905C166.642 73.635 165.558 74 164.121 74ZM162.008 74H160.327V63.1519H162.008V74ZM172.154 74H170.473V63.1519H172.154V74ZM177.434 74H170.974V72.574H177.434V74ZM177.247 69.1786H171.441V67.7695H177.247V69.1786ZM177.374 64.5694H170.965V63.1519H177.374V64.5694ZM187.447 74H185.682L185.393 71.8015C185.342 71.3997 185.251 71.0574 185.121 70.7744C184.997 70.4858 184.802 70.2623 184.536 70.1038C184.27 69.9454 183.899 69.8662 183.424 69.8662L180.597 69.8577V68.5165L183.602 68.508C184.298 68.508 184.796 68.3411 185.096 68.0072C185.396 67.6733 185.546 67.2093 185.546 66.6151V66.3774C185.546 65.7946 185.393 65.3447 185.087 65.0278C184.782 64.7109 184.275 64.5524 183.568 64.5524H180.563V63.1519H183.806C185.011 63.1519 185.888 63.4093 186.437 63.9243C186.992 64.4393 187.269 65.1579 187.269 66.0803V66.352C187.269 67.0367 187.11 67.5969 186.794 68.0327C186.482 68.4684 185.959 68.7429 185.223 68.856V69.0767L184.51 68.8306C185.138 68.8759 185.622 69.0117 185.962 69.238C186.307 69.4644 186.559 69.7756 186.717 70.1717C186.876 70.5679 186.997 71.0489 187.082 71.6148L187.447 74ZM181.106 74H179.426V63.1519H181.098V68.9834L181.106 69.62V74ZM197.528 70.5198H194.489V69.1107H197.485C198.164 69.1107 198.657 68.9438 198.962 68.6099C199.274 68.2703 199.429 67.8007 199.429 67.2008V66.4623C199.429 65.8455 199.276 65.373 198.971 65.0448C198.665 64.7166 198.176 64.5524 197.502 64.5524H194.48V63.1519H197.536C198.781 63.1519 199.689 63.4405 200.261 64.0177C200.838 64.5892 201.127 65.39 201.127 66.4199V67.2433C201.127 68.2732 200.838 69.0767 200.261 69.654C199.684 70.2312 198.773 70.5198 197.528 70.5198ZM195.049 74H193.368V63.1519H195.041V69.5266L195.049 70.2906V74ZM202.93 74H201.207L204.534 63.1519H207.174L210.502 74H208.779L205.96 64.2893H205.748L202.93 74ZM208.312 70.9697H203.38V69.5606H208.312V70.9697ZM213.776 63.1519V74H212.069V63.1519H213.776ZM213.003 74V72.557H218.69V74H213.003ZM221.299 74H219.576L222.904 63.1519H225.544L228.871 74H227.148L224.33 64.2893H224.118L221.299 74ZM226.681 70.9697H221.749V69.5606H226.681V70.9697ZM238.723 74H236.729L233.138 69.1277H232.009V67.778H233.138L236.678 63.1519H238.613L234.42 68.5759L234.411 68.1685L238.723 74ZM232.128 74H230.439V63.1519H232.128V74ZM248.472 74H246.477L242.886 69.1277H241.757V67.778H242.886L246.426 63.1519H248.361L244.168 68.5759L244.16 68.1685L248.472 74ZM241.876 74H240.187V63.1519H241.876V74ZM250.81 74H249.087L252.414 63.1519H255.054L258.381 74H256.658L253.84 64.2893H253.628L250.81 74ZM256.191 70.9697H251.26V69.5606H256.191V70.9697ZM263.743 74H261.112V72.5655H263.684C264.578 72.5655 265.249 72.3221 265.696 71.8355C266.148 71.3488 266.375 70.6528 266.375 69.7473V67.3876C266.375 66.4765 266.148 65.7804 265.696 65.2994C265.249 64.8128 264.578 64.5694 263.684 64.5694H261.104V63.1519H263.743C265.181 63.1519 266.264 63.5169 266.994 64.2469C267.724 64.9712 268.089 66.0153 268.089 67.3791V69.7558C268.089 71.1196 267.724 72.1693 266.994 72.905C266.264 73.635 265.181 74 263.743 74ZM261.63 74H259.949V63.1519H261.63V74ZM277.968 74H275.337V72.5655H277.909C278.803 72.5655 279.473 72.3221 279.92 71.8355C280.373 71.3488 280.599 70.6528 280.599 69.7473V67.3876C280.599 66.4765 280.373 65.7804 279.92 65.2994C279.473 64.8128 278.803 64.5694 277.909 64.5694H275.328V63.1519H277.968C279.405 63.1519 280.489 63.5169 281.219 64.2469C281.949 64.9712 282.314 66.0153 282.314 67.3791V69.7558C282.314 71.1196 281.949 72.1693 281.219 72.905C280.489 73.635 279.405 74 277.968 74ZM275.854 74H274.174V63.1519H275.854V74ZM286.001 74H284.32V63.1519H286.001V74ZM291.28 74H284.821V72.574H291.28V74ZM291.094 69.1786H285.288V67.7695H291.094V69.1786ZM291.221 64.5694H284.812V63.1519H291.221V64.5694ZM298.282 74H295.616L292.391 63.1519H294.173L296.847 72.7183H297.042L299.716 63.1519H301.499L298.282 74ZM303 74H301.277L304.604 63.1519H307.244L310.572 74H308.849L306.03 64.2893H305.818L303 74ZM308.382 70.9697H303.45V69.5606H308.382V70.9697ZM315.204 74.2037C314.689 74.2037 314.214 74.1641 313.778 74.0849C313.343 74.0057 312.952 73.9066 312.607 73.7878C312.267 73.669 311.979 73.5501 311.741 73.4313L311.58 71.7591C312.016 72.0081 312.531 72.2288 313.125 72.4212C313.725 72.6136 314.373 72.7098 315.069 72.7098C315.861 72.7098 316.444 72.5796 316.817 72.3193C317.191 72.0533 317.377 71.6544 317.377 71.1224V70.9951C317.377 70.6499 317.301 70.367 317.148 70.1463C317.001 69.9199 316.749 69.7275 316.393 69.5691C316.036 69.405 315.552 69.2493 314.941 69.1022C314.138 68.9041 313.487 68.6721 312.989 68.4062C312.497 68.1345 312.137 67.7978 311.911 67.396C311.685 66.9886 311.571 66.4821 311.571 65.8766V65.7917C311.571 64.8807 311.874 64.179 312.48 63.6866C313.085 63.1943 313.993 62.9481 315.204 62.9481C315.98 62.9481 316.642 63.0245 317.191 63.1773C317.745 63.3245 318.201 63.4914 318.557 63.6781L318.71 65.2315C318.297 64.9938 317.822 64.7958 317.284 64.6373C316.746 64.4732 316.141 64.3912 315.468 64.3912C314.941 64.3912 314.52 64.4506 314.203 64.5694C313.886 64.6826 313.657 64.8495 313.515 65.0702C313.374 65.2853 313.303 65.5456 313.303 65.8512V65.8851C313.303 66.202 313.374 66.4736 313.515 66.7C313.657 66.9264 313.906 67.1272 314.262 67.3027C314.624 67.4724 315.137 67.6422 315.799 67.812C316.585 68.01 317.219 68.2336 317.7 68.4826C318.187 68.7259 318.543 69.0456 318.77 69.4417C318.996 69.8322 319.109 70.3472 319.109 70.9866V71.1564C319.109 72.158 318.784 72.9163 318.133 73.4313C317.482 73.9462 316.506 74.2037 315.204 74.2037ZM324.91 74H322.253L320.097 63.1519H321.837L323.204 70.681L323.56 72.574H323.696L324.036 70.681L325.385 63.4235H327.864L329.205 70.681L329.545 72.574H329.689L330.045 70.681L331.412 63.1519H333.144L330.996 74H328.348L327.261 68.0836L326.693 64.8326H326.557L325.988 68.0836L324.91 74ZM338.534 74.2207C337.119 74.2207 336.044 73.8359 335.309 73.0663C334.579 72.2967 334.214 71.196 334.214 69.7643V67.3791C334.214 65.953 334.579 64.8552 335.309 64.0856C336.044 63.316 337.119 62.9312 338.534 62.9312C339.949 62.9312 341.021 63.316 341.751 64.0856C342.487 64.8552 342.855 65.953 342.855 67.3791V69.7643C342.855 71.196 342.487 72.2967 341.751 73.0663C341.021 73.8359 339.949 74.2207 338.534 74.2207ZM338.534 72.8031C339.394 72.8031 340.039 72.5457 340.47 72.0307C340.905 71.5101 341.123 70.7772 341.123 69.8322V67.3112C341.123 66.3605 340.905 65.6305 340.47 65.1212C340.039 64.6062 339.394 64.3487 338.534 64.3487C337.674 64.3487 337.026 64.6062 336.59 65.1212C336.16 65.6305 335.945 66.3605 335.945 67.3112V69.8322C335.945 70.7772 336.16 71.5101 336.59 72.0307C337.026 72.5457 337.674 72.8031 338.534 72.8031ZM346.318 74H344.663L345.054 63.1519H347.642L349.977 70.5877H350.087L352.421 63.1519H355.01L355.401 74H353.746L353.618 69.6624L353.499 64.9429H353.364L350.885 72.7437H349.179L346.7 64.9429H346.564L346.437 69.6709L346.318 74Z" fill="#0F4C5C"/>
</svg>
